<svg xmlns="http://www.w3.org/2000/svg" xmlns:xlink="http://www.w3.org/1999/xlink" width="1692" zoomAndPan="magnify" viewBox="110 145 1470 1305" height="1305" preserveAspectRatio="xMidYMid meet" version="1.0"><defs><clipPath id="ae2a28d412"><path d="M 0.234375 0 L 1691.765625 0 L 1691.765625 1813 L 0.234375 1813 Z M 0.234375 0 " clip-rule="nonzero"/></clipPath><clipPath id="6296c30b45"><path d="M 370.355469 714.304688 L 1321.609375 714.304688 L 1321.609375 1234.898438 L 370.355469 1234.898438 Z M 370.355469 714.304688 " clip-rule="nonzero"/></clipPath><clipPath id="bc2fb650ba"><path d="M 0.355469 0.304688 L 951.609375 0.304688 L 951.609375 520.898438 L 0.355469 520.898438 Z M 0.355469 0.304688 " clip-rule="nonzero"/></clipPath><clipPath id="8eefe7d4e1"><rect x="0" width="952" y="0" height="521"/></clipPath><clipPath id="808e064a12"><rect x="0" width="1692" y="0" height="1813"/></clipPath></defs><g clip-path="url(#ae2a28d412)"><g transform="matrix(1, 0, 0, 1, 0.000000000000000056, 0)"><g clip-path="url(#808e064a12)"><path stroke-linecap="round" transform="matrix(64.874012, 0, 0, 64.874012, 67.685622, 0.000000000000476196)" fill="none" stroke-linejoin="round" d="M 3.000014 9.000017 L 20.999988 9.000017 M 8.999985 14.999988 L 11.000016 17.000018 L 15.000017 13.000017 M 7.000015 2.999985 L 7.000015 5.000016 M 16.999987 2.999985 L 16.999987 5.000016 M 6.200027 21.000019 L 17.799975 21.000019 C 18.920115 21.000019 19.480215 21.000019 19.908027 20.781988 C 20.284297 20.59027 20.590299 20.284329 20.782017 19.907998 C 20.999988 19.480186 20.999988 18.920086 20.999988 17.800006 L 20.999988 8.200029 C 20.999988 7.079889 20.999988 6.519849 20.782017 6.092036 C 20.590299 5.715706 20.284297 5.409704 19.908027 5.217987 C 19.480215 5.000016 18.920115 5.000016 17.799975 5.000016 L 6.200027 5.000016 C 5.079887 5.000016 4.519847 5.000016 4.092035 5.217987 C 3.715705 5.409704 3.409703 5.715706 3.217985 6.092036 C 3.000014 6.519849 3.000014 7.079889 3.000014 8.200029 L 3.000014 17.800006 C 3.000014 18.920086 3.000014 19.480186 3.217985 19.907998 C 3.409703 20.284329 3.715705 20.59027 4.092035 20.781988 C 4.519847 21.000019 5.079887 21.000019 6.200027 21.000019 Z M 6.200027 21.000019 " stroke="#ffffff" stroke-width="2" stroke-opacity="1" stroke-miterlimit="4"/><g clip-path="url(#6296c30b45)"><g transform="matrix(1, 0, 0, 1, 370, 714)"><g clip-path="url(#8eefe7d4e1)"><g clip-path="url(#bc2fb650ba)"><path fill="#201836" d="M 0.355469 0.304688 L 952.066406 0.304688 L 952.066406 520.898438 L 0.355469 520.898438 Z M 0.355469 0.304688 " fill-opacity="1" fill-rule="nonzero"/></g></g></g></g><path stroke-linecap="round" transform="matrix(70.476258, 0, 0, 70.476258, 0.233214, 121.068422)" fill="none" stroke-linejoin="round" d="M 9 12.000023 L 10.500006 13.499974 C 10.776086 13.776109 11.223876 13.776109 11.500011 13.499974 L 15.000026 10.000015 " stroke="#fd8606" stroke-width="2" stroke-opacity="1" stroke-miterlimit="4"/></g></g></g></svg>