<svg xmlns="http://www.w3.org/2000/svg" xmlns:xlink="http://www.w3.org/1999/xlink" width="1510" zoomAndPan="magnify" viewBox="40 112 1510 398" height="398" preserveAspectRatio="xMidYMid meet" version="1.0"><defs><g/><clipPath id="ee846d60c3"><path d="M 103.449219 298.03125 L 368.660156 298.03125 L 368.660156 443.175781 L 103.449219 443.175781 Z M 103.449219 298.03125 " clip-rule="nonzero"/></clipPath><clipPath id="21434600bb"><path d="M 0.449219 0.03125 L 265.660156 0.03125 L 265.660156 145.175781 L 0.449219 145.175781 Z M 0.449219 0.03125 " clip-rule="nonzero"/></clipPath><clipPath id="6bcd99896c"><rect x="0" width="266" y="0" height="146"/></clipPath><clipPath id="437ad50e53"><rect x="0" width="799" y="0" height="382"/></clipPath><clipPath id="f9bdab1860"><rect x="0" width="262" y="0" height="417"/></clipPath></defs><path stroke-linecap="round" transform="matrix(18.087026, 0, 0, 18.087026, 19.062945, 98.881744)" fill="none" stroke-linejoin="round" d="M 3.000011 8.999949 L 21.000007 8.999949 M 9.000082 15.00002 L 10.999961 16.9999 L 14.999937 12.999925 M 6.999986 3.000094 L 6.999986 4.999974 M 17.000032 3.000094 L 17.000032 4.999974 M 6.200034 21.000091 L 17.799984 21.000091 C 18.920003 21.000091 19.480229 21.000091 19.908065 20.781962 C 20.284284 20.590397 20.590313 20.284367 20.782094 19.907932 C 21.000007 19.480096 21.000007 18.920087 21.000007 17.800068 L 21.000007 8.199998 C 21.000007 7.079979 21.000007 6.519753 20.782094 6.091917 C 20.590313 5.715698 20.284284 5.409669 19.908065 5.217888 C 19.480229 4.999974 18.920003 4.999974 17.799984 4.999974 L 6.200034 4.999974 C 5.079799 4.999974 4.51979 4.999974 4.091954 5.217888 C 3.715734 5.409669 3.409705 5.715698 3.217924 6.091917 C 3.000011 6.519753 3.000011 7.079979 3.000011 8.199998 L 3.000011 17.800068 C 3.000011 18.920087 3.000011 19.480096 3.217924 19.907932 C 3.409705 20.284367 3.715734 20.590397 4.091954 20.781962 C 4.51979 21.000091 5.079799 21.000091 6.200034 21.000091 Z M 6.200034 21.000091 " stroke="#ffffff" stroke-width="2" stroke-opacity="1" stroke-miterlimit="4"/><g clip-path="url(#ee846d60c3)"><g transform="matrix(1, 0, 0, 1, 103, 298)"><g clip-path="url(#6bcd99896c)"><g clip-path="url(#21434600bb)"><path fill="#201836" d="M 0.449219 0.03125 L 265.789062 0.03125 L 265.789062 145.175781 L 0.449219 145.175781 Z M 0.449219 0.03125 " fill-opacity="1" fill-rule="nonzero"/></g></g></g></g><path stroke-linecap="round" transform="matrix(19.648947, 0, 0, 19.648947, 0.257054, 132.635906)" fill="none" stroke-linejoin="round" d="M 9.000004 11.999929 L 10.499965 13.500089 C 10.776101 13.776026 11.223803 13.776026 11.499939 13.500089 L 15.000047 9.999981 " stroke="#fd8606" stroke-width="2" stroke-opacity="1" stroke-miterlimit="4"/><g transform="matrix(1, 0, 0, 1, 471, 145)"><g clip-path="url(#437ad50e53)"><g fill="#ffffff" fill-opacity="1"><g transform="translate(0.850915, 285.635044)"><g><path d="M 154.453125 -191.21875 L 154.453125 -153.90625 L 103.78125 -153.90625 L 103.78125 0 L 57.203125 0 L 57.203125 -153.90625 L 6.53125 -153.90625 L 6.53125 -191.21875 Z M 154.453125 -191.21875 "/></g></g></g><g fill="#ffffff" fill-opacity="1"><g transform="translate(157.474221, 285.635044)"><g><path d="M 166.96875 -152 L 166.96875 0 L 120.390625 0 L 120.390625 -20.703125 C 115.671875 -13.984375 109.269531 -8.578125 101.1875 -4.484375 C 93.113281 -0.398438 84.171875 1.640625 74.359375 1.640625 C 62.734375 1.640625 52.472656 -0.945312 43.578125 -6.125 C 34.679688 -11.300781 27.78125 -18.789062 22.875 -28.59375 C 17.976562 -38.40625 15.53125 -49.9375 15.53125 -63.1875 L 15.53125 -152 L 61.828125 -152 L 61.828125 -69.453125 C 61.828125 -59.285156 64.457031 -51.382812 69.71875 -45.75 C 74.988281 -40.125 82.078125 -37.3125 90.984375 -37.3125 C 100.054688 -37.3125 107.222656 -40.125 112.484375 -45.75 C 117.753906 -51.382812 120.390625 -59.285156 120.390625 -69.453125 L 120.390625 -152 Z M 166.96875 -152 "/></g></g></g><g fill="#ffffff" fill-opacity="1"><g transform="translate(336.705797, 285.635044)"><g><path d="M 63.46875 -126.65625 C 68.914062 -135.007812 75.722656 -141.59375 83.890625 -146.40625 C 92.066406 -151.21875 101.148438 -153.625 111.140625 -153.625 L 111.140625 -104.328125 L 98.328125 -104.328125 C 86.710938 -104.328125 78 -101.828125 72.1875 -96.828125 C 66.375 -91.835938 63.46875 -83.078125 63.46875 -70.546875 L 63.46875 0 L 16.890625 0 L 16.890625 -152 L 63.46875 -152 Z M 63.46875 -126.65625 "/></g></g></g><g fill="#ffffff" fill-opacity="1"><g transform="translate(448.92979, 285.635044)"><g><path d="M 109.5 -153.625 C 127.289062 -153.625 141.5 -147.859375 152.125 -136.328125 C 162.75 -124.796875 168.0625 -108.953125 168.0625 -88.796875 L 168.0625 0 L 121.765625 0 L 121.765625 -82.53125 C 121.765625 -92.695312 119.128906 -100.59375 113.859375 -106.21875 C 108.585938 -111.851562 101.503906 -114.671875 92.609375 -114.671875 C 83.710938 -114.671875 76.628906 -111.851562 71.359375 -106.21875 C 66.097656 -100.59375 63.46875 -92.695312 63.46875 -82.53125 L 63.46875 0 L 16.890625 0 L 16.890625 -152 L 63.46875 -152 L 63.46875 -131.84375 C 68.1875 -138.5625 74.539062 -143.867188 82.53125 -147.765625 C 90.519531 -151.671875 99.507812 -153.625 109.5 -153.625 Z M 109.5 -153.625 "/></g></g></g><g fill="#ffffff" fill-opacity="1"><g transform="translate(628.161391, 285.635044)"><g><path d="M 86.078125 2.171875 C 71.179688 2.171875 57.785156 -1.003906 45.890625 -7.359375 C 34.003906 -13.710938 24.65625 -22.789062 17.84375 -34.59375 C 11.03125 -46.394531 7.625 -60.195312 7.625 -76 C 7.625 -91.613281 11.070312 -105.367188 17.96875 -117.265625 C 24.875 -129.160156 34.316406 -138.285156 46.296875 -144.640625 C 58.285156 -150.992188 71.726562 -154.171875 86.625 -154.171875 C 101.507812 -154.171875 114.941406 -150.992188 126.921875 -144.640625 C 138.910156 -138.285156 148.351562 -129.160156 155.25 -117.265625 C 162.15625 -105.367188 165.609375 -91.613281 165.609375 -76 C 165.609375 -60.382812 162.113281 -46.628906 155.125 -34.734375 C 148.132812 -22.835938 138.597656 -13.710938 126.515625 -7.359375 C 114.441406 -1.003906 100.960938 2.171875 86.078125 2.171875 Z M 86.078125 -38.140625 C 94.972656 -38.140625 102.550781 -41.40625 108.8125 -47.9375 C 115.082031 -54.476562 118.21875 -63.832031 118.21875 -76 C 118.21875 -88.164062 115.175781 -97.515625 109.09375 -104.046875 C 103.007812 -110.585938 95.519531 -113.859375 86.625 -113.859375 C 77.539062 -113.859375 70 -110.632812 64 -104.1875 C 58.007812 -97.738281 55.015625 -88.34375 55.015625 -76 C 55.015625 -63.832031 57.96875 -54.476562 63.875 -47.9375 C 69.78125 -41.40625 77.179688 -38.140625 86.078125 -38.140625 Z M 86.078125 -38.140625 "/></g></g></g></g></g><g transform="matrix(1, 0, 0, 1, 1278, 127)"><g clip-path="url(#f9bdab1860)"><g fill="#fd8606" fill-opacity="1"><g transform="translate(0.141887, 312.444144)"><g><path d="M 93.9375 2.078125 C 78.675781 2.078125 65 -0.394531 52.90625 -5.34375 C 40.820312 -10.300781 31.160156 -17.632812 23.921875 -27.34375 C 16.691406 -37.050781 12.878906 -48.742188 12.484375 -62.421875 L 66.578125 -62.421875 C 67.367188 -54.691406 70.046875 -48.796875 74.609375 -44.734375 C 79.171875 -40.671875 85.113281 -38.640625 92.4375 -38.640625 C 99.96875 -38.640625 105.910156 -40.375 110.265625 -43.84375 C 114.628906 -47.3125 116.8125 -52.117188 116.8125 -58.265625 C 116.8125 -63.410156 115.078125 -67.664062 111.609375 -71.03125 C 108.148438 -74.40625 103.890625 -77.179688 98.828125 -79.359375 C 93.773438 -81.546875 86.59375 -84.023438 77.28125 -86.796875 C 63.8125 -90.960938 52.816406 -95.125 44.296875 -99.28125 C 35.773438 -103.445312 28.441406 -109.585938 22.296875 -117.703125 C 16.148438 -125.828125 13.078125 -136.429688 13.078125 -149.515625 C 13.078125 -168.929688 20.109375 -184.140625 34.171875 -195.140625 C 48.242188 -206.140625 66.578125 -211.640625 89.171875 -211.640625 C 112.160156 -211.640625 130.6875 -206.140625 144.75 -195.140625 C 158.820312 -184.140625 166.359375 -168.832031 167.359375 -149.21875 L 112.359375 -149.21875 C 111.960938 -155.957031 109.484375 -161.257812 104.921875 -165.125 C 100.367188 -168.988281 94.523438 -170.921875 87.390625 -170.921875 C 81.242188 -170.921875 76.285156 -169.285156 72.515625 -166.015625 C 68.753906 -162.742188 66.875 -158.035156 66.875 -151.890625 C 66.875 -145.148438 70.046875 -139.898438 76.390625 -136.140625 C 82.734375 -132.378906 92.644531 -128.316406 106.125 -123.953125 C 119.59375 -119.390625 130.535156 -115.023438 138.953125 -110.859375 C 147.378906 -106.703125 154.664062 -100.660156 160.8125 -92.734375 C 166.957031 -84.816406 170.03125 -74.613281 170.03125 -62.125 C 170.03125 -50.238281 167.003906 -39.4375 160.953125 -29.71875 C 154.910156 -20.007812 146.140625 -12.28125 134.640625 -6.53125 C 123.148438 -0.789062 109.582031 2.078125 93.9375 2.078125 Z M 93.9375 2.078125 "/></g></g></g><g fill="#fd8606" fill-opacity="1"><g transform="translate(178.197456, 312.444144)"><g><path d="M 44 -183.109375 C 35.070312 -183.109375 27.785156 -185.734375 22.140625 -190.984375 C 16.492188 -196.234375 13.671875 -202.722656 13.671875 -210.453125 C 13.671875 -218.378906 16.492188 -224.96875 22.140625 -230.21875 C 27.785156 -235.46875 35.070312 -238.09375 44 -238.09375 C 52.71875 -238.09375 59.898438 -235.46875 65.546875 -230.21875 C 71.191406 -224.96875 74.015625 -218.378906 74.015625 -210.453125 C 74.015625 -202.722656 71.191406 -196.234375 65.546875 -190.984375 C 59.898438 -185.734375 52.71875 -183.109375 44 -183.109375 Z M 69.265625 -165.859375 L 69.265625 0 L 18.421875 0 L 18.421875 -165.859375 Z M 69.265625 -165.859375 "/></g></g></g></g></g></svg>